CMC_leg_t_102_r_0.8196_states
version=1
nRows=7
nColumns=49
inDegrees=yes

# SIMM Motion File Header:
name CMC_leg_t_102_r_0.8196_states
datacolumns 49
datarows 7
otherdata 1
range 0.52522895 0.52796893
endheader
time	/jointset/bb/crank_angle/value	/jointset/bb/crank_angle/speed	/jointset/spindle/pedal_angle_r/value	/jointset/spindle/pedal_angle_r/speed	/jointset/ground_pelvis/pelvis_tilt/value	/jointset/ground_pelvis/pelvis_tilt/speed	/jointset/ground_pelvis/pelvis_list/value	/jointset/ground_pelvis/pelvis_list/speed	/jointset/ground_pelvis/pelvis_rotation/value	/jointset/ground_pelvis/pelvis_rotation/speed	/jointset/ground_pelvis/pelvis_tx/value	/jointset/ground_pelvis/pelvis_tx/speed	/jointset/ground_pelvis/pelvis_ty/value	/jointset/ground_pelvis/pelvis_ty/speed	/jointset/ground_pelvis/pelvis_tz/value	/jointset/ground_pelvis/pelvis_tz/speed	/jointset/hip_r/hip_angle_r/value	/jointset/hip_r/hip_angle_r/speed	/jointset/hip_r/hip_adduction_r/value	/jointset/hip_r/hip_adduction_r/speed	/jointset/hip_r/hip_rotation_r/value	/jointset/hip_r/hip_rotation_r/speed	/jointset/knee_r/knee_angle_r/value	/jointset/knee_r/knee_angle_r/speed	/jointset/knee_r/tib_tx_r/value	/jointset/knee_r/tib_tx_r/speed	/jointset/knee_r/tib_ty_r/value	/jointset/knee_r/tib_ty_r/speed	/jointset/tib_pat_r/pat_angle_r/value	/jointset/tib_pat_r/pat_angle_r/speed	/jointset/tib_pat_r/pat_tx_r/value	/jointset/tib_pat_r/pat_tx_r/speed	/jointset/tib_pat_r/pat_ty_r/value	/jointset/tib_pat_r/pat_ty_r/speed	/jointset/ankle_r/ankle_angle_r/value	/jointset/ankle_r/ankle_angle_r/speed	/jointset/subtalar_r/subtalar_angle_r/value	/jointset/subtalar_r/subtalar_angle_r/speed	/jointset/mtp_r/mtp_angle_r/value	/jointset/mtp_r/mtp_angle_r/speed	/forceset/bifemlh_r/activation	/forceset/bifemlh_r/fiber_length	/forceset/bifemsh_r/activation	/forceset/bifemsh_r/fiber_length	/forceset/glut_max2_r/activation	/forceset/glut_max2_r/fiber_length	/forceset/vas_int_r/activation	/forceset/vas_int_r/fiber_length
      0.52522895	   -261.74436741	   -688.77493694	    236.50198019	    552.27809540	     -0.00000000	     -0.00000000	      0.00000000	      0.00000000	      0.00000000	      0.00000000	      0.00000000	      0.00000000	      0.00000000	     -0.00000000	     -0.00000000	     -0.00000000	     48.89076469	    180.54048296	      4.24530322	     -2.82922161	     -2.13911024	    -30.53797347	    -97.11847288	   -371.08362183	      0.00267589	     -0.06987500	     -0.48840364	     -0.12831340	     17.59441276	      1.55183157	      0.02994250	     -0.15196594	     -0.02301575	     -0.01918767	     23.54273872	     56.20407106	      0.00000000	      0.00000000	    -76.03480345	   -220.26648222	      0.02768609	      0.10859965	      0.04541243	      0.14906869	      0.02002627	      0.13618984	      0.02186460	      0.15179629
      0.52568562	   -262.05835396	   -686.37386294	    236.75405791	    551.73067203	     -0.00000000	     -0.00000000	      0.00000000	      0.00000000	      0.00000000	      0.00000000	      0.00000000	      0.00000000	      0.00000000	     -0.00000000	     -0.00000000	     -0.00000000	     48.97318064	    180.41095738	      4.24401163	     -2.82743991	     -2.15303113	    -30.43048557	    -97.28751503	   -369.26034248	      0.00264395	     -0.07001246	     -0.48846208	     -0.12765531	     17.59512002	      1.54567768	      0.02987322	     -0.15146757	     -0.02302452	     -0.01921335	     23.56844106	     56.36216170	      0.00000000	      0.00000000	    -76.13649436	   -225.09197781	      0.02763872	      0.10865255	      0.04526110	      0.14901507	      0.02002611	      0.13624815	      0.02185329	      0.15188506
      0.52614228	   -262.37124531	   -683.97825288	    237.00588459	    551.17848052	     -0.00000000	     -0.00000000	      0.00000000	      0.00000000	      0.00000000	      0.00000000	      0.00000000	      0.00000000	      0.00000000	     -0.00000000	     -0.00000000	     -0.00000000	     49.05553649	    180.27726522	      4.24272090	     -2.82546238	     -2.16690292	    -30.32292869	    -97.45572496	   -367.43873032	      0.00261195	     -0.07014379	     -0.48852023	     -0.12699735	     17.59582441	      1.53925838	      0.02980416	     -0.15096670	     -0.02303330	     -0.01923686	     23.59421457	     56.51577155	      0.00000000	      0.00000000	    -76.24037959	   -229.87686368	      0.02759165	      0.10870594	      0.04511081	      0.14896199	      0.02002595	      0.13630636	      0.02184205	      0.15197362
      0.52659894	   -262.68304398	   -681.58806146	    237.25745804	    550.62144456	     -0.00000000	     -0.00000000	      0.00000000	      0.00000000	      0.00000000	      0.00000000	      0.00000000	      0.00000000	      0.00000000	     -0.00000000	     -0.00000000	     -0.00000000	     49.13783036	    180.13942882	      4.24143111	     -2.82329090	     -2.18072558	    -30.21530213	    -97.62310346	   -365.61885722	      0.00257989	     -0.07026904	     -0.48857807	     -0.12633958	     17.59652581	      1.53258153	      0.02973534	     -0.15046335	     -0.02304209	     -0.01925822	     23.62005722	     56.66491962	      0.00000000	      0.00000000	    -76.34644063	   -234.62125519	      0.02754487	      0.10875979	      0.04496155	      0.14890945	      0.02002579	      0.13636449	      0.02183088	      0.15206125
      0.52705560	   -262.99375243	   -679.20326308	    237.50877604	    550.05950442	     -0.00000000	     -0.00000000	      0.00000000	      0.00000000	      0.00000000	      0.00000000	      0.00000000	      0.00000000	      0.00000000	     -0.00000000	     -0.00000000	     -0.00000000	     49.22006036	    179.99747516	      4.24014237	     -2.82092744	     -2.19449907	    -30.10760611	    -97.78965134	   -363.80080439	      0.00254777	     -0.07038823	     -0.48863562	     -0.12568204	     17.59722411	      1.52565491	      0.02966674	     -0.14995758	     -0.02305089	     -0.01927746	     23.64596696	     56.80962653	      0.00000000	      0.00000000	    -76.45465902	   -239.32526660	      0.02749839	      0.10881409	      0.04481331	      0.14885745	      0.02002564	      0.13642253	      0.02181978	      0.15214845
      0.52751226	   -263.30337313	   -676.82382544	    237.75983635	    549.49259623	     -0.00000000	     -0.00000000	      0.00000000	      0.00000000	      0.00000000	      0.00000000	      0.00000000	      0.00000000	      0.00000000	     -0.00000000	     -0.00000000	     -0.00000000	     49.30222461	    179.85142910	      4.23885474	     -2.81837393	     -2.20822338	    -29.99984056	    -97.95536945	   -361.98464802	      0.00251560	     -0.07050142	     -0.48869286	     -0.12502478	     17.59791918	      1.51848618	      0.02959838	     -0.14944942	     -0.02305969	     -0.01929463	     23.67194178	     56.94991252	      0.00000000	      0.00000000	    -76.56501633	   -243.98901600	      0.02745221	      0.10886883	      0.04466608	      0.14880598	      0.02002548	      0.13648048	      0.02180875	      0.15223491
      0.52796893	   -263.61190852	   -674.44967703	    238.01063667	    548.92062508	     -0.00000000	     -0.00000000	      0.00000000	      0.00000000	      0.00000000	      0.00000000	      0.00000000	      0.00000000	      0.00000000	     -0.00000000	     -0.00000000	     -0.00000000	     49.38432126	    179.70130463	      4.23756832	     -2.81563215	     -2.22189845	    -29.89200371	    -98.12025867	   -360.17044205	      0.00248338	     -0.07060863	     -0.48874980	     -0.12436784	     17.59861093	      1.51108282	      0.02953025	     -0.14893890	     -0.02306851	     -0.01930973	     23.69797966	     57.08579453	      0.00000000	      0.00000000	    -76.67749422	   -248.61262692	      0.02740631	      0.10892400	      0.04451986	      0.14875505	      0.02002533	      0.13653834	      0.02179778	      0.15232070
